<mxfile host="app.diagrams.net" modified="2022-02-26T22:46:19.282Z" agent="5.0 (Windows NT 10.0; Win64; x64) AppleWebKit/537.36 (KHTML, like Gecko) Chrome/98.0.4758.102 Safari/537.36" etag="R4IzjKS_LsZCalkfq0Ll" version="16.6.2" type="github">
  <diagram name="Page-1" id="9361dd3d-8414-5efd-6122-117bd74ce7a7">
    <mxGraphModel dx="466" dy="1039" grid="1" gridSize="10" guides="1" tooltips="1" connect="1" arrows="1" fold="1" page="0" pageScale="1.5" pageWidth="826" pageHeight="1169" background="none" math="0" shadow="0">
      <root>
        <mxCell id="0" />
        <mxCell id="1" parent="0" />
        <mxCell id="11drq7sAJ2hJXasCKpL5-99" value="" style="endArrow=none;html=1;rounded=0;exitX=0.997;exitY=1;exitDx=0;exitDy=0;exitPerimeter=0;startArrow=open;startFill=0;dashed=1;dashPattern=1 1;" edge="1" parent="1" source="11drq7sAJ2hJXasCKpL5-96" target="11drq7sAJ2hJXasCKpL5-94">
          <mxGeometry width="50" height="50" relative="1" as="geometry">
            <mxPoint x="340" y="-260" as="sourcePoint" />
            <mxPoint x="420" y="-280" as="targetPoint" />
          </mxGeometry>
        </mxCell>
        <mxCell id="11drq7sAJ2hJXasCKpL5-100" value="Accept Peer-to-Peer Connection" style="edgeLabel;html=1;align=center;verticalAlign=bottom;resizable=0;points=[];labelPosition=center;verticalLabelPosition=top;labelBackgroundColor=none;" vertex="1" connectable="0" parent="11drq7sAJ2hJXasCKpL5-99">
          <mxGeometry x="-0.0459" y="-1" relative="1" as="geometry">
            <mxPoint x="5" y="-1" as="offset" />
          </mxGeometry>
        </mxCell>
        <mxCell id="11drq7sAJ2hJXasCKpL5-93" value="Peer 1" style="shape=umlLifeline;perimeter=lifelinePerimeter;whiteSpace=wrap;html=1;container=1;collapsible=0;recursiveResize=0;outlineConnect=0;" vertex="1" parent="1">
          <mxGeometry x="160.06" y="-440" width="79.94" height="1000" as="geometry" />
        </mxCell>
        <mxCell id="11drq7sAJ2hJXasCKpL5-96" value="" style="html=1;points=[];perimeter=orthogonalPerimeter;fillColor=#d5e8d4;strokeColor=#82b366;" vertex="1" parent="11drq7sAJ2hJXasCKpL5-93">
          <mxGeometry x="34.97" y="80" width="10" height="40" as="geometry" />
        </mxCell>
        <mxCell id="11drq7sAJ2hJXasCKpL5-108" value="" style="html=1;points=[];perimeter=orthogonalPerimeter;labelBackgroundColor=none;fillColor=#d5e8d4;strokeColor=#82b366;" vertex="1" parent="11drq7sAJ2hJXasCKpL5-93">
          <mxGeometry x="34.97" y="750" width="10" height="90" as="geometry" />
        </mxCell>
        <mxCell id="11drq7sAJ2hJXasCKpL5-116" value="" style="html=1;points=[];perimeter=orthogonalPerimeter;labelBackgroundColor=none;fillColor=#d5e8d4;strokeColor=#82b366;" vertex="1" parent="11drq7sAJ2hJXasCKpL5-93">
          <mxGeometry x="34.97" y="890" width="10" height="90" as="geometry" />
        </mxCell>
        <mxCell id="11drq7sAJ2hJXasCKpL5-123" value="" style="endArrow=block;html=1;rounded=0;endFill=1;entryX=-0.003;entryY=0.331;entryDx=0;entryDy=0;entryPerimeter=0;edgeStyle=orthogonalEdgeStyle;exitX=-0.003;exitY=0.112;exitDx=0;exitDy=0;exitPerimeter=0;" edge="1" parent="11drq7sAJ2hJXasCKpL5-93" source="11drq7sAJ2hJXasCKpL5-108" target="11drq7sAJ2hJXasCKpL5-108">
          <mxGeometry width="50" height="50" relative="1" as="geometry">
            <mxPoint x="-10.060000000000002" y="740" as="sourcePoint" />
            <mxPoint x="19.939999999999998" y="770" as="targetPoint" />
            <Array as="points">
              <mxPoint x="-80" y="760" />
              <mxPoint x="-80" y="780" />
            </Array>
          </mxGeometry>
        </mxCell>
        <mxCell id="11drq7sAJ2hJXasCKpL5-124" value="Create Channel" style="edgeLabel;align=center;verticalAlign=bottom;resizable=0;points=[];labelPosition=center;verticalLabelPosition=top;html=1;labelBackgroundColor=none;" vertex="1" connectable="0" parent="11drq7sAJ2hJXasCKpL5-123">
          <mxGeometry x="-0.2583" relative="1" as="geometry">
            <mxPoint x="18" as="offset" />
          </mxGeometry>
        </mxCell>
        <mxCell id="11drq7sAJ2hJXasCKpL5-94" value="Peer 2" style="shape=umlLifeline;perimeter=lifelinePerimeter;whiteSpace=wrap;html=1;container=1;collapsible=0;recursiveResize=0;outlineConnect=0;" vertex="1" parent="1">
          <mxGeometry x="400" y="-440" width="80" height="1000" as="geometry" />
        </mxCell>
        <mxCell id="11drq7sAJ2hJXasCKpL5-113" value="" style="html=1;points=[];perimeter=orthogonalPerimeter;labelBackgroundColor=none;fillColor=#d5e8d4;strokeColor=#82b366;" vertex="1" parent="11drq7sAJ2hJXasCKpL5-94">
          <mxGeometry x="35" y="790" width="10" height="50" as="geometry" />
        </mxCell>
        <mxCell id="11drq7sAJ2hJXasCKpL5-117" value="" style="html=1;points=[];perimeter=orthogonalPerimeter;labelBackgroundColor=none;fillColor=#d5e8d4;strokeColor=#82b366;" vertex="1" parent="11drq7sAJ2hJXasCKpL5-94">
          <mxGeometry x="35" y="850" width="10" height="90" as="geometry" />
        </mxCell>
        <mxCell id="11drq7sAJ2hJXasCKpL5-128" value="" style="html=1;points=[];perimeter=orthogonalPerimeter;fillColor=#d5e8d4;strokeColor=#82b366;" vertex="1" parent="11drq7sAJ2hJXasCKpL5-94">
          <mxGeometry x="-205" y="170" width="10" height="130" as="geometry" />
        </mxCell>
        <mxCell id="11drq7sAJ2hJXasCKpL5-131" value="" style="html=1;points=[];perimeter=orthogonalPerimeter;fillColor=#d5e8d4;strokeColor=#82b366;" vertex="1" parent="11drq7sAJ2hJXasCKpL5-94">
          <mxGeometry x="34.97" y="190" width="10" height="110" as="geometry" />
        </mxCell>
        <mxCell id="11drq7sAJ2hJXasCKpL5-136" value="" style="endArrow=block;html=1;rounded=0;endFill=1;startArrow=block;startFill=1;" edge="1" parent="11drq7sAJ2hJXasCKpL5-94" source="11drq7sAJ2hJXasCKpL5-128" target="11drq7sAJ2hJXasCKpL5-131">
          <mxGeometry width="50" height="50" relative="1" as="geometry">
            <mxPoint x="-160.03" y="270" as="sourcePoint" />
            <mxPoint x="-20.029999999999973" y="280" as="targetPoint" />
          </mxGeometry>
        </mxCell>
        <mxCell id="11drq7sAJ2hJXasCKpL5-137" value="Send Chat Message 0..*" style="edgeLabel;align=center;verticalAlign=bottom;resizable=0;points=[];labelPosition=center;verticalLabelPosition=top;html=1;labelBackgroundColor=none;" vertex="1" connectable="0" parent="11drq7sAJ2hJXasCKpL5-136">
          <mxGeometry x="-0.2583" relative="1" as="geometry">
            <mxPoint x="27" as="offset" />
          </mxGeometry>
        </mxCell>
        <mxCell id="11drq7sAJ2hJXasCKpL5-138" value="" style="endArrow=block;html=1;rounded=0;endFill=1;entryX=0.004;entryY=1.001;entryDx=0;entryDy=0;entryPerimeter=0;startArrow=block;startFill=1;" edge="1" parent="11drq7sAJ2hJXasCKpL5-94" source="11drq7sAJ2hJXasCKpL5-128" target="11drq7sAJ2hJXasCKpL5-131">
          <mxGeometry width="50" height="50" relative="1" as="geometry">
            <mxPoint x="-185.01000000000002" y="190.27999999999997" as="sourcePoint" />
            <mxPoint x="45.00999999999999" y="199.79999999999995" as="targetPoint" />
          </mxGeometry>
        </mxCell>
        <mxCell id="11drq7sAJ2hJXasCKpL5-139" value="Send Chat Disconnection" style="edgeLabel;align=center;verticalAlign=bottom;resizable=0;points=[];labelPosition=center;verticalLabelPosition=top;html=1;labelBackgroundColor=none;" vertex="1" connectable="0" parent="11drq7sAJ2hJXasCKpL5-138">
          <mxGeometry x="-0.2583" relative="1" as="geometry">
            <mxPoint x="27" as="offset" />
          </mxGeometry>
        </mxCell>
        <mxCell id="11drq7sAJ2hJXasCKpL5-98" value="" style="html=1;points=[];perimeter=orthogonalPerimeter;fillColor=#d5e8d4;strokeColor=#82b366;" vertex="1" parent="11drq7sAJ2hJXasCKpL5-94">
          <mxGeometry x="35" y="90" width="10" height="30" as="geometry" />
        </mxCell>
        <mxCell id="11drq7sAJ2hJXasCKpL5-95" value="" style="endArrow=block;html=1;rounded=0;endFill=1;entryX=-0.001;entryY=0;entryDx=0;entryDy=0;entryPerimeter=0;" edge="1" parent="1" source="11drq7sAJ2hJXasCKpL5-96" target="11drq7sAJ2hJXasCKpL5-98">
          <mxGeometry width="50" height="50" relative="1" as="geometry">
            <mxPoint x="320" y="-300" as="sourcePoint" />
            <mxPoint x="390" y="-320" as="targetPoint" />
          </mxGeometry>
        </mxCell>
        <mxCell id="11drq7sAJ2hJXasCKpL5-97" value="Send Peer-to-Peer Connection" style="edgeLabel;align=center;verticalAlign=bottom;resizable=0;points=[];labelPosition=center;verticalLabelPosition=top;html=1;labelBackgroundColor=none;" vertex="1" connectable="0" parent="11drq7sAJ2hJXasCKpL5-95">
          <mxGeometry x="-0.2583" relative="1" as="geometry">
            <mxPoint x="27" as="offset" />
          </mxGeometry>
        </mxCell>
        <mxCell id="11drq7sAJ2hJXasCKpL5-109" value="" style="endArrow=block;html=1;rounded=0;endFill=1;exitX=0.997;exitY=0.445;exitDx=0;exitDy=0;exitPerimeter=0;entryX=0;entryY=-0.004;entryDx=0;entryDy=0;entryPerimeter=0;" edge="1" parent="1" source="11drq7sAJ2hJXasCKpL5-108" target="11drq7sAJ2hJXasCKpL5-113">
          <mxGeometry width="50" height="50" relative="1" as="geometry">
            <mxPoint x="220" y="350" as="sourcePoint" />
            <mxPoint x="380" y="350" as="targetPoint" />
          </mxGeometry>
        </mxCell>
        <mxCell id="11drq7sAJ2hJXasCKpL5-110" value="Send Hosted Channels List" style="edgeLabel;align=center;verticalAlign=bottom;resizable=0;points=[];labelPosition=center;verticalLabelPosition=top;html=1;labelBackgroundColor=none;" vertex="1" connectable="0" parent="11drq7sAJ2hJXasCKpL5-109">
          <mxGeometry x="-0.2583" relative="1" as="geometry">
            <mxPoint x="27" as="offset" />
          </mxGeometry>
        </mxCell>
        <mxCell id="11drq7sAJ2hJXasCKpL5-111" value="" style="endArrow=classic;html=1;rounded=0;endFill=1;exitX=0.999;exitY=0.076;exitDx=0;exitDy=0;exitPerimeter=0;entryX=0.004;entryY=0.02;entryDx=0;entryDy=0;entryPerimeter=0;" edge="1" parent="1">
          <mxGeometry width="50" height="50" relative="1" as="geometry">
            <mxPoint x="480.0000000000001" y="100" as="sourcePoint" />
            <mxPoint x="710.02" y="109.51999999999987" as="targetPoint" />
          </mxGeometry>
        </mxCell>
        <mxCell id="11drq7sAJ2hJXasCKpL5-112" value="Send Chat Connection" style="edgeLabel;align=center;verticalAlign=bottom;resizable=0;points=[];labelPosition=center;verticalLabelPosition=top;html=1;labelBackgroundColor=none;" vertex="1" connectable="0" parent="11drq7sAJ2hJXasCKpL5-111">
          <mxGeometry x="-0.2583" relative="1" as="geometry">
            <mxPoint x="27" as="offset" />
          </mxGeometry>
        </mxCell>
        <mxCell id="11drq7sAJ2hJXasCKpL5-114" value="" style="endArrow=none;html=1;rounded=0;exitX=1.009;exitY=0.332;exitDx=0;exitDy=0;exitPerimeter=0;startArrow=classic;startFill=1;entryX=0.01;entryY=0.166;entryDx=0;entryDy=0;entryPerimeter=0;dashed=1;dashPattern=1 1;" edge="1" parent="1">
          <mxGeometry width="50" height="50" relative="1" as="geometry">
            <mxPoint x="479.9999999999999" y="130" as="sourcePoint" />
            <mxPoint x="709.98" y="130.15999999999997" as="targetPoint" />
          </mxGeometry>
        </mxCell>
        <mxCell id="11drq7sAJ2hJXasCKpL5-115" value="Accept Peer-to-PeerConnection" style="edgeLabel;html=1;align=center;verticalAlign=bottom;resizable=0;points=[];labelPosition=center;verticalLabelPosition=top;labelBackgroundColor=none;" vertex="1" connectable="0" parent="11drq7sAJ2hJXasCKpL5-114">
          <mxGeometry x="-0.0459" y="-1" relative="1" as="geometry">
            <mxPoint x="5" y="-1" as="offset" />
          </mxGeometry>
        </mxCell>
        <mxCell id="11drq7sAJ2hJXasCKpL5-118" value="" style="endArrow=classic;html=1;rounded=0;endFill=1;exitX=0.003;exitY=0.443;exitDx=0;exitDy=0;exitPerimeter=0;entryX=1.002;entryY=0.002;entryDx=0;entryDy=0;entryPerimeter=0;" edge="1" parent="1" source="11drq7sAJ2hJXasCKpL5-117" target="11drq7sAJ2hJXasCKpL5-116">
          <mxGeometry width="50" height="50" relative="1" as="geometry">
            <mxPoint x="270.0000000000001" y="440" as="sourcePoint" />
            <mxPoint x="260" y="460" as="targetPoint" />
          </mxGeometry>
        </mxCell>
        <mxCell id="11drq7sAJ2hJXasCKpL5-119" value="Send Channel Connection Request" style="edgeLabel;align=center;verticalAlign=bottom;resizable=0;points=[];labelPosition=center;verticalLabelPosition=top;html=1;labelBackgroundColor=none;" vertex="1" connectable="0" parent="11drq7sAJ2hJXasCKpL5-118">
          <mxGeometry x="-0.2583" relative="1" as="geometry">
            <mxPoint x="-30" as="offset" />
          </mxGeometry>
        </mxCell>
        <mxCell id="11drq7sAJ2hJXasCKpL5-120" value="" style="endArrow=none;html=1;rounded=0;exitX=-0.013;exitY=0.766;exitDx=0;exitDy=0;exitPerimeter=0;startArrow=classic;startFill=1;entryX=0.975;entryY=0.326;entryDx=0;entryDy=0;entryPerimeter=0;dashed=1;dashPattern=1 1;" edge="1" parent="1" source="11drq7sAJ2hJXasCKpL5-117" target="11drq7sAJ2hJXasCKpL5-116">
          <mxGeometry width="50" height="50" relative="1" as="geometry">
            <mxPoint x="359.9999999999999" y="480" as="sourcePoint" />
            <mxPoint x="589.98" y="480.15999999999985" as="targetPoint" />
          </mxGeometry>
        </mxCell>
        <mxCell id="11drq7sAJ2hJXasCKpL5-121" value="Accept Channel Connection Request" style="edgeLabel;html=1;align=center;verticalAlign=bottom;resizable=0;points=[];labelPosition=center;verticalLabelPosition=top;labelBackgroundColor=none;" vertex="1" connectable="0" parent="11drq7sAJ2hJXasCKpL5-120">
          <mxGeometry x="-0.0459" y="-1" relative="1" as="geometry">
            <mxPoint x="-5" y="-1" as="offset" />
          </mxGeometry>
        </mxCell>
        <mxCell id="11drq7sAJ2hJXasCKpL5-129" value="" style="endArrow=block;html=1;rounded=0;endFill=1;edgeStyle=orthogonalEdgeStyle;" edge="1" parent="1" source="11drq7sAJ2hJXasCKpL5-93" target="11drq7sAJ2hJXasCKpL5-128">
          <mxGeometry width="50" height="50" relative="1" as="geometry">
            <mxPoint x="44.90999999999997" y="440.0799999999999" as="sourcePoint" />
            <mxPoint x="270" y="-240" as="targetPoint" />
            <Array as="points">
              <mxPoint x="280" y="-280" />
              <mxPoint x="280" y="-260" />
            </Array>
          </mxGeometry>
        </mxCell>
        <mxCell id="11drq7sAJ2hJXasCKpL5-130" value="Create Chat" style="edgeLabel;align=center;verticalAlign=bottom;resizable=0;points=[];labelPosition=center;verticalLabelPosition=top;html=1;labelBackgroundColor=none;" vertex="1" connectable="0" parent="11drq7sAJ2hJXasCKpL5-129">
          <mxGeometry x="-0.2583" relative="1" as="geometry">
            <mxPoint x="-24" as="offset" />
          </mxGeometry>
        </mxCell>
        <mxCell id="11drq7sAJ2hJXasCKpL5-127" value="Loop 1..*" style="shape=umlFrame;whiteSpace=wrap;html=1;labelBackgroundColor=none;width=80;height=30;" vertex="1" parent="1">
          <mxGeometry x="179.97" y="-250" width="280" height="80" as="geometry" />
        </mxCell>
      </root>
    </mxGraphModel>
  </diagram>
</mxfile>
